<svg id="Layer_1" data-name="Layer 1" xmlns="http://www.w3.org/2000/svg" viewBox="0 0 28.14 17.55">
    <defs>
        <style>.cls-1{fill:#9e9e9e;}</style>
    </defs>
    <title>1 icon</title>
    <path class="cls-1" d="M1.93,23.69A.55.55,0,0,0,2,23.54a1.66,1.66,0,0,1,1.1-1.45l2.1-1a1.08,1.08,0,0,0,.73-.86.46.46,0,0,0-.14-.34A4.15,4.15,0,0,1,4.44,18a.44.44,0,0,0-.2-.23A1.11,1.11,0,0,1,4.06,16a.51.51,0,0,0,.11-.32c0-.47,0-.95.12-1.41a.9.9,0,0,1,.62-.75.21.21,0,0,0,.12-.1,1.5,1.5,0,0,1,1.31-.86,4.68,4.68,0,0,1,2.43.24,2.06,2.06,0,0,1,1.39,1.78,6.85,6.85,0,0,1,.07.82.93.93,0,0,0,.26.77,1.12,1.12,0,0,1-.34,1.59A.4.4,0,0,0,10,18a3.77,3.77,0,0,1-1.31,1.86.4.4,0,0,0-.1.56A5,5,0,0,0,9,21c-.19.15-.42.32-.63.5a3.11,3.11,0,0,0-1.19,2.57c0,.51,0,1,0,1.56H3.76a3.45,3.45,0,0,1-.68-.07A1.25,1.25,0,0,1,2,24.36a1.37,1.37,0,0,0-.07-.23Z" transform="translate(-1.93 -8.1)"/><path class="cls-1" d="M23.91,24.2a10.71,10.71,0,0,1-.1,1.28,1.31,1.31,0,0,1,0,.16H8.29a1.35,1.35,0,0,1-.11-.38,8.87,8.87,0,0,1,0-1.45A2.38,2.38,0,0,1,9.29,22a13.29,13.29,0,0,1,2.95-1.46c.41-.16.82-.33,1.2-.53a1.41,1.41,0,0,0,.75-1A.46.46,0,0,0,14,18.5a5.58,5.58,0,0,1-1.84-2.71.47.47,0,0,0-.21-.25,1.65,1.65,0,0,1-.19-2.5c.08,0,.12-.25.11-.38a5.33,5.33,0,0,1,.13-2,1.44,1.44,0,0,1,.91-1.15.24.24,0,0,0,.13-.13,1.92,1.92,0,0,1,1.58-1.16,5.79,5.79,0,0,1,3.94.51A2.66,2.66,0,0,1,20,10.9c.08.61.08,1.22.13,1.83,0,.1,0,.24.09.29a1.32,1.32,0,0,1,.49,1.32A1.4,1.4,0,0,1,20,15.58a.36.36,0,0,0-.14.21A5.48,5.48,0,0,1,18,18.48a.51.51,0,0,0-.18.58,1.39,1.39,0,0,0,.8,1c.68.31,1.38.58,2.07.87A9,9,0,0,1,23,22.16,2.38,2.38,0,0,1,23.91,24.2Z" transform="translate(-1.93 -8.1)"/><path class="cls-1" d="M23,21a3.11,3.11,0,0,0,.36-.21.82.82,0,0,0,.25-.27c.21-.45.12-.61-.35-.71A3,3,0,0,1,21.73,19c-.13-.13-.18-.25,0-.42a1.28,1.28,0,0,0,.23-1.24,10.3,10.3,0,0,1-.3-1.31,2.66,2.66,0,0,1,1.59-2.82.44.44,0,0,0,.23-.18,1,1,0,0,1,.65-.47,3.14,3.14,0,0,1,3.78,2.33,3.6,3.6,0,0,1-.14,2.26,1.27,1.27,0,0,0,.21,1.43.24.24,0,0,1,0,.38,3,3,0,0,1-1.55.77c-.15,0-.41.1-.42.16a1.64,1.64,0,0,0,.11.65c0,.09.17.16.27.21l1.87.86.55.25a2,2,0,0,1,1.31,2,3.55,3.55,0,0,1-.08.79,1.25,1.25,0,0,1-1.28.93H25c-.21,0-.22-.08-.21-.27a12.89,12.89,0,0,0,0-1.92,3.25,3.25,0,0,0-1.45-2.21L23,21S23,21,23,21Z" transform="translate(-1.93 -8.1)"/>
</svg>